<?xml version="1.0" encoding="iso-8859-1"?>
<!-- Generator: Adobe Illustrator 19.0.0, SVG Export Plug-In . SVG Version: 6.00 Build 0)  -->
<svg version="1.1" id="Layer_1" xmlns="http://www.w3.org/2000/svg" xmlns:xlink="http://www.w3.org/1999/xlink" x="0px" y="0px"
	 viewBox="0 0 505 505" style="enable-background:new 0 0 505 505;" xml:space="preserve">
<circle style="fill:#e67e22;" cx="252.5" cy="252.5" r="252.5"/>
<polygon style="fill:#CED5E0;" points="143,235 130.5,225.4 212.4,119.2 292.2,196.4 367.9,135.9 377.7,148.2 291.2,217.4
	214.1,142.8 "/>
<path style="fill:#e67e22;" d="M43.4,394.1C88.8,461,165.5,505,252.5,505s163.7-44,209.1-110.9H43.4z"/>
<g>
	<path style="fill:#e74c3c;" d="M394.8,385.4h-49.3c-1.2,0-2.1-0.9-2.1-2.1V204.6c0-1.2,0.9-2.1,2.1-2.1h49.3c1.2,0,2.1,0.9,2.1,2.1
		v178.7C396.9,384.4,396,385.4,394.8,385.4z"/>
	<path style="fill:#e74c3c;" d="M316.4,385.4h-49.3c-1.2,0-2.1-0.9-2.1-2.1V257.1c0-1.2,0.9-2.1,2.1-2.1h49.3c1.2,0,2.1,0.9,2.1,2.1
		v126.2C318.4,384.4,317.5,385.4,316.4,385.4z"/>
	<path style="fill:#e74c3c;" d="M237.9,385.4h-49.3c-1.2,0-2.1-0.9-2.1-2.1V193.2c0-1.2,0.9-2.1,2.1-2.1h49.3c1.2,0,2.1,0.9,2.1,2.1
		v190.1C240,384.4,239.1,385.4,237.9,385.4z"/>
	<path style="fill:#e74c3c;" d="M159.5,385.4h-49.3c-1.2,0-2.1-0.9-2.1-2.1v-93.7c0-1.2,0.9-2.1,2.1-2.1h49.3c1.2,0,2.1,0.9,2.1,2.1
		v93.7C161.6,384.4,160.6,385.4,159.5,385.4z"/>
</g>
<rect x="73.3" y="377" style="fill:#CED5E0;" width="358.4" height="17.1"/>
<circle style="fill:#E6E9EE;" cx="372.8" cy="142.1" r="29.4"/>
<circle style="fill:#FF7058;" cx="372.8" cy="142.1" r="17.1"/>
<circle style="fill:#E6E9EE;" cx="291.7" cy="204" r="29.4"/>
<circle style="fill:#FF7058;" cx="291.7" cy="204" r="17.1"/>
<circle style="fill:#E6E9EE;" cx="213.3" cy="131" r="29.4"/>
<circle style="fill:#FF7058;" cx="213.3" cy="131" r="17.1"/>
<circle style="fill:#E6E9EE;" cx="134.8" cy="230.2" r="29.4"/>
<circle style="fill:#FF7058;" cx="134.8" cy="230.2" r="17.1"/>
<g>
</g>
<g>
</g>
<g>
</g>
<g>
</g>
<g>
</g>
<g>
</g>
<g>
</g>
<g>
</g>
<g>
</g>
<g>
</g>
<g>
</g>
<g>
</g>
<g>
</g>
<g>
</g>
<g>
</g>
</svg>
