<?xml version="1.0" encoding="iso-8859-1"?>
<!-- Generator: Adobe Illustrator 19.0.0, SVG Export Plug-In . SVG Version: 6.00 Build 0)  -->
<svg version="1.1" id="Capa_1" xmlns="http://www.w3.org/2000/svg" xmlns:xlink="http://www.w3.org/1999/xlink" x="0px" y="0px"
	 viewBox="0 0 512 512" style="enable-background:new 0 0 512 512;" xml:space="preserve">
<path style="fill:#FEC9A3;" d="M143.186,512V303.729l-17.356,26.034l-52.068-34.712l31.241-51.304
	c13.147-16.905,33.367-26.798,54.784-26.798h44.145c9.589,0,17.356-7.767,17.356-17.356v-43.39h69.424v43.39
	c0,9.589,7.767,17.356,17.356,17.356h44.145c21.417,0,41.637,9.893,54.784,26.798l31.241,51.304l-52.068,34.712l-17.356-26.034V512
	H143.186z"/>
<rect x="256" y="156.203" style="fill:#F7BB8F;" width="34.712" height="34.712"/>
<path style="fill:#DE4C3C;" d="M221.288,156.203v43.39c0,9.589-7.767,17.356-17.356,17.356h-44.145
	c-21.417,0-41.637,9.893-54.784,26.798l-31.241,51.304l52.068,34.712l17.356-26.034V512H256V156.203H221.288z"/>
<path style="fill:#FEC9A3;" d="M256,0v173.559h34.712l34.712-69.424V69.424C325.424,31.084,294.339,0,256,0z"/>
<path style="fill:#6B402A;" d="M286.373,60.746c-7.185,0-13.017,5.832-13.017,13.017s5.832,13.017,13.017,13.017
	c7.185,0,13.017-5.832,13.017-13.017S293.558,60.746,286.373,60.746z"/>
<rect x="256" y="130.169" style="fill:#F0A789;" width="26.034" height="17.356"/>
<path style="fill:#FDB62F;" d="M296.422,496.128L296.422,496.128c-9.459,4.729-19.899,7.194-30.477,7.194h-19.89
	c-10.578,0-21.018-2.465-30.477-7.194l0,0c-23.092-11.542-37.68-35.146-37.68-60.963V321.085c0-25.817,14.588-49.421,37.68-60.963
	l0,0c9.459-4.729,19.899-7.194,30.477-7.194h19.89c10.578,0,21.018,2.465,30.477,7.194l0,0c23.092,11.542,37.68,35.146,37.68,60.963
	v114.081C334.102,460.982,319.514,484.586,296.422,496.128z"/>
<g>
	<path style="fill:#FF913D;" d="M208.731,460.843l-20.558,10.283c3.141,5.059,6.934,9.676,11.281,13.746l17-8.496
		c4.287-2.143,6.031-7.359,3.888-11.646c-2.143-4.287-7.359-6.031-11.646-3.888l0,0H208.731z"/>
	<path style="fill:#FF913D;" d="M203.932,416.542c2.3,0,4.513-0.911,6.135-2.543l8.678-8.678c3.332-3.445,3.237-8.938-0.217-12.271
		c-3.367-3.246-8.695-3.246-12.054,0l-8.678,8.678c-3.384,3.393-3.384,8.886,0,12.271
		C199.428,415.631,201.633,416.542,203.932,416.542z"/>
	<path style="fill:#FF913D;" d="M272.748,459.932h-25.426c-4.79,0-8.678,3.888-8.678,8.678s3.888,8.678,8.678,8.678h25.426
		c2.898,0,5.606,1.449,7.22,3.862l11.42,17.139c1.736-0.686,3.393-1.345,5.033-2.161c3.558-1.822,6.951-3.957,10.136-6.378
		l-12.149-18.224C289.584,464.28,281.452,459.932,272.748,459.932z"/>
	<path style="fill:#FF913D;" d="M334.102,426.244V406.84l-27.596,13.798c-6.031,3.003-12.678,4.573-19.413,4.582h-5.059
		c-4.79,0-8.678,3.888-8.678,8.678s3.888,8.678,8.678,8.678h5.085l14.813,14.813c3.445,3.332,8.938,3.237,12.271-0.208
		c3.246-3.367,3.246-8.695,0-12.062l-6.248-6.248c2.152-0.781,4.261-1.684,6.309-2.708L334.102,426.244z"/>
	<path style="fill:#FF913D;" d="M264.678,416.542c0-4.79,3.888-8.678,8.678-8.678h7.333c4.79,0,8.678-3.888,8.678-8.678
		s-3.888-8.678-8.678-8.678h-7.333c-3.87,0.017-7.689,0.902-11.169,2.603c-3.358-3.419-8.852-3.462-12.271-0.104
		c-1.658,1.631-2.595,3.853-2.595,6.179v17.356c0,4.79-3.888,8.678-8.678,8.678h-10.162c-6.908-0.026-13.546,2.725-18.415,7.628
		l-3.593,3.593c-3.445,3.332-3.541,8.825-0.217,12.271c3.332,3.445,8.825,3.541,12.271,0.217c0.069-0.069,0.148-0.139,0.217-0.217
		l3.593-3.593c1.631-1.632,3.836-2.543,6.144-2.543h10.162C253.023,442.576,264.678,430.922,264.678,416.542z"/>
</g>
<path style="fill:#87CED9;" d="M282.034,355.797l14.874-26.034l2.482-17.356l-121.492,8.678v60.746l34.078,13.633
	c2.057,0.746,4.148,1.362,6.283,1.84l20.385-6.795C261.207,381.483,264.86,372.97,282.034,355.797z"/>
<path style="fill:#6CBBC7;" d="M296.908,329.763l-14.874,26.034c-17.174,17.174-20.827,25.687-43.39,34.712l-20.385,6.795
	c4.244,1.18,8.617,1.814,13.017,1.883h49.36c6.63,0,13.191-1.267,19.343-3.723l34.122-13.633v-52.068H296.908z"/>
<path style="fill:#4398D1;" d="M220.42,363.789L256,321.085v-68.157h-9.945c-10.578,0-21.018,2.465-30.477,7.194l0,0
	c-23.092,11.542-37.68,35.146-37.68,60.963v52.068h22.563C208.176,373.144,215.483,369.716,220.42,363.789z"/>
<path style="fill:#3E8CC7;" d="M291.58,363.789L256,321.085v-68.157h9.945c10.578,0,21.018,2.465,30.477,7.194l0,0
	c23.092,11.542,37.68,35.146,37.68,60.963v52.068h-22.519C303.859,373.153,296.526,369.725,291.58,363.789z"/>
<path style="fill:#DE4C3C;" d="M256,295.051v43.39c4.165,9.45,12.974,16.028,23.214,17.356l0,0c11.143,0,20.176-9.034,20.176-20.176
	l0,0v-1.97c0-2.569-0.486-5.111-1.441-7.498l-10.292-20.116c-3.454-6.743-10.388-10.986-17.963-10.986H256"/>
<g>
	<path style="fill:#B83021;" d="M180.007,493.16c-15.091-15.065-24.697-34.755-27.275-55.921
		c6.517,6.17,14.301,10.839,22.814,13.676l4.66,1.336c-1.493-5.571-2.265-11.316-2.308-17.087v-2.005
		c-11.741-5.389-21.035-14.987-26.034-26.902v-4.513c6.613,6.526,14.631,11.455,23.431,14.414l2.603,0.807v-18.519
		c-11.741-5.389-21.035-14.987-26.034-26.902v-11.281c5.658,8.296,13.06,15.256,21.695,20.393l4.339,2.551v-20.35
		c-10.691-10.119-19.499-22.059-26.034-35.25v-1.18c-0.009-22.971,8.635-45.091,24.203-61.978c2.603-2.248,5.007-4.643,7.35-7.142
		c4.964-4.304,10.379-8.053,16.15-11.195c3.541,5.788,7.593,11.247,12.097,16.315c1.31-0.764,2.543-1.623,3.914-2.308l0,0
		c3.167-1.545,6.439-2.838,9.806-3.879l3.471-1.145c-10.353-11.16-18.614-24.099-24.385-38.183c-0.191,0-0.373,0.061-0.564,0.061
		h-17.885l0.148,0.408c-2.838,11.281-8.791,21.547-17.182,29.609c-1.241,1.172-2.447,2.369-3.636,3.593
		c-1.536,1.38-3.167,2.681-4.808,3.975v-37.61h-0.755c-2.803,0-5.606,0.182-8.383,0.529h-0.182
		c-2.708,0.347-5.389,0.842-8.036,1.493v46.861c-3.87,2.109-7.81,4.105-11.733,5.866c-1.059-16.983,0.451-34.035,4.487-50.566
		c-7.151,2.612-13.824,6.378-19.751,11.151c-0.217,0.182-0.434,0.391-0.642,0.564l0,0c-2.681,14.961-2.907,30.26-0.677,45.29
		c-11.646,4.122-23.708,6.942-35.97,8.409l-0.642,1.05c0.217,0.113,0.417,0.234,0.616,0.373l-5.111,7.081l12.149,8.079
		c15.36-2.517,30.408-6.621,44.926-12.227c3.749-1.484,7.628-3.141,11.542-4.972c-3.862,9.615-6.326,19.734-7.324,30.052l0,0
		l8.131-12.253V512h8.678v-26.624c4.521,7.255,9.849,13.989,15.872,20.055l7.029,6.569h25.383l-16.115-14.813L180.007,493.16z"/>
	<path style="fill:#B83021;" d="M247.322,229.437c-8.609-15.282-14.553-31.909-17.582-49.187l-1.579-6.691h-6.873v26.034
		c-0.017,1.449-0.217,2.89-0.599,4.287c-0.043,0.182-0.113,0.356-0.165,0.538c-0.382,1.302-0.911,2.551-1.579,3.732
		c4.79,16.714,13.407,32.082,25.166,44.891c0.642,0,1.284-0.113,1.935-0.113H256v-79.369h-8.678V229.437z"/>
</g>
<path style="fill:#C7C7C7;" d="M221.288,173.559l-33.566-58.741c-0.755-1.319-1.154-2.82-1.145-4.339V95.458h26.034l26.034,43.39
	v34.712H221.288z"/>
<path style="fill:#EBEBEB;" d="M186.576,69.424v34.712c0,4.79,3.888,8.678,8.678,8.678h17.356c4.79,0,8.678,3.888,8.678,8.678
	v52.068H256V0C217.661,0,186.576,31.084,186.576,69.424z"/>
<g>
	<path style="fill:#C7C7C7;" d="M225.627,60.746c-7.185,0-13.017,5.832-13.017,13.017s5.832,13.017,13.017,13.017
		s13.017-5.832,13.017-13.017S232.812,60.746,225.627,60.746z"/>
	<rect x="229.966" y="130.169" style="fill:#C7C7C7;" width="26.034" height="17.356"/>
</g>
<rect x="221.288" y="173.559" style="fill:#B83021;" width="34.712" height="17.356"/>
<g>
</g>
<g>
</g>
<g>
</g>
<g>
</g>
<g>
</g>
<g>
</g>
<g>
</g>
<g>
</g>
<g>
</g>
<g>
</g>
<g>
</g>
<g>
</g>
<g>
</g>
<g>
</g>
<g>
</g>
</svg>
