<?xml version="1.0" encoding="iso-8859-1"?>
<!-- Generator: Adobe Illustrator 19.0.0, SVG Export Plug-In . SVG Version: 6.00 Build 0)  -->
<svg version="1.1" id="Capa_1" xmlns="http://www.w3.org/2000/svg" xmlns:xlink="http://www.w3.org/1999/xlink" x="0px" y="0px"
	 viewBox="0 0 512 512" style="enable-background:new 0 0 512 512;" xml:space="preserve">
<path style="fill:#6D3326;" d="M452,75.5v75l-30,30H91l-30-30v-75c0-24.901,20.099-45,45-45h301C431.901,30.5,452,50.599,452,75.5z"
	/>
<path style="fill:#55271A;" d="M422,180.5H256v-150h151c24.901,0,45,20.099,45,45v75L422,180.5z"/>
<path style="fill:#6D3326;" d="M512,391.5v75c0,8.399-6.599,15-15,15H15c-8.401,0-15-6.601-15-15v-75l30-30h452L512,391.5z"/>
<path style="fill:#55271A;" d="M512,391.5v75c0,8.399-6.599,15-15,15H256v-120h226L512,391.5z"/>
<path style="fill:#FDBF00;" d="M477.8,253.099c-22.5,19.799-56.8,52.8-81.7,36c-32.399-21.601-74.399-21.601-106.8,0
	c-10.199,6.599-21.599,10.499-33.3,10.8c-13.801,0.901-27.9-2.699-39.901-10.8c-32.399-21.601-74.399-21.601-106.8,0
	c-23.099,15.3-52.5-15.901-75-31.8L61,150.5h391L477.8,253.099z"/>
<path style="fill:#FF9F00;" d="M477.8,253.099c-22.5,19.799-56.8,52.8-81.7,36c-32.399-21.601-74.399-21.601-106.8,0
	c-10.199,6.599-21.599,10.499-33.3,10.8V150.5h196L477.8,253.099z"/>
<path style="fill:#F40000;" d="M512,391.5H0l25.499-103.301l8.8-30.899c22.5,15.899,51.901,17.1,75,1.8
	c32.401-21.601,74.401-21.601,106.8,0c12.001,8.101,26.1,11.7,39.901,10.8c11.7-0.3,23.101-4.2,33.3-10.8
	c32.401-21.601,74.401-21.601,106.8,0c24.901,16.8,59.2,13.799,81.7-6l7.8,31.5L512,391.5z"/>
<path style="fill:#CD0000;" d="M512,391.5H256V269.899c11.7-0.3,23.101-4.2,33.3-10.8c32.401-21.601,74.401-21.601,106.8,0
	c24.901,16.8,59.2,13.799,81.7-6l7.8,31.5L512,391.5z"/>
<path style="fill:#EDE9E8;" d="M226,195.5h-60c-16.569,0-30-13.431-30-30v-30c0-16.569,13.431-30,30-30h60c16.569,0,30,13.431,30,30
	v30C256,182.069,242.569,195.5,226,195.5z"/>
<path style="fill:#DFD7D5;" d="M346,195.5h-60c-16.569,0-30-13.431-30-30v-30c0-16.569,13.431-30,30-30h60c16.569,0,30,13.431,30,30
	v30C376,182.069,362.569,195.5,346,195.5z"/>
<g>
</g>
<g>
</g>
<g>
</g>
<g>
</g>
<g>
</g>
<g>
</g>
<g>
</g>
<g>
</g>
<g>
</g>
<g>
</g>
<g>
</g>
<g>
</g>
<g>
</g>
<g>
</g>
<g>
</g>
</svg>
